<?xml version="1.0" encoding="UTF-8"?>
<svg width="17px" height="42px" viewBox="0 0 17 42" version="1.1" xmlns="http://www.w3.org/2000/svg" xmlns:xlink="http://www.w3.org/1999/xlink">
    <!-- Generator: Sketch 58 (84663) - https://sketch.com -->
    <title>Fill 9 Copy 2</title>
    <desc>Created with Sketch.</desc>
    <g id="S" stroke="none" stroke-width="1" fill="none" fill-rule="evenodd" opacity="0.400000006">
        <g id="BLK-/-00.KIT-/-TESTIMONIALS-/-1440x580" transform="translate(-98.000000, -291.000000)" fill="#4A4A4A" stroke="#4A4A4A" stroke-width="2">
            <g id="Group-3" transform="translate(99.000000, 64.000000)">
                <g id="Group-6" transform="translate(0.000000, 228.000000)">
                    <g id="Group">
                        <path d="M14.9428759,19.8256498 L0.531195507,0.116092243 C0.431594496,-0.0133436579 0.249969124,-0.036877458 0.121073698,0.0572577425 C-0.013680611,0.151392943 -0.0371161429,0.333779894 0.0566259849,0.469099245 L14.3452698,19.9962699 L0.0566259849,39.529324 C-0.0371161429,39.6587599 -0.013680611,39.8470303 0.121073698,39.9411655 C0.173803645,39.9764662 0.232392475,40 0.290981305,40 C0.384723432,40 0.472606677,39.9588158 0.531195507,39.8764475 L14.9428759,20.1727734 C15.0190414,20.0668713 15.0190414,19.9256685 14.9428759,19.8256498" id="Fill-9-Copy-2" transform="translate(7.500000, 20.000000) scale(-1, 1) translate(-7.500000, -20.000000) "></path>
                    </g>
                </g>
            </g>
        </g>
    </g>
</svg>